<mxfile host="app.diagrams.net" modified="2020-10-10T07:03:31.127Z" agent="5.0 (Macintosh; Intel Mac OS X 10_15_7) AppleWebKit/605.1.15 (KHTML, like Gecko) Version/14.0 Safari/605.1.15" etag="tKG8_PsPDBFYJjN6kyXN" version="13.7.9" type="github">
  <diagram name="Page-1" id="0783ab3e-0a74-02c8-0abd-f7b4e66b4bec">
    <mxGraphModel dx="550" dy="546" grid="1" gridSize="10" guides="1" tooltips="1" connect="1" arrows="1" fold="1" page="1" pageScale="1" pageWidth="850" pageHeight="1100" background="#ffffff" math="0" shadow="0">
      <root>
        <mxCell id="0" />
        <mxCell id="1" parent="0" />
        <mxCell id="1c1d494c118603dd-1" value="Change Management" style="swimlane;html=1;childLayout=stackLayout;startSize=20;rounded=0;shadow=0;comic=0;labelBackgroundColor=none;strokeWidth=1;fontFamily=TitilliumText25L;fontSize=10;align=center;fontColor=#012656;strokeColor=#012656;" parent="1" vertex="1">
          <mxGeometry x="40" y="30" width="750" height="460" as="geometry" />
        </mxCell>
        <mxCell id="1c1d494c118603dd-2" value="Requester" style="swimlane;html=1;startSize=20;fontColor=#012656;fontFamily=TitilliumText25L;fontSize=10;strokeColor=#012656;" parent="1c1d494c118603dd-1" vertex="1">
          <mxGeometry y="20" width="250" height="440" as="geometry" />
        </mxCell>
        <mxCell id="G4yqJb6Tjz21nFHgBb8d-5" value="" style="edgeStyle=orthogonalEdgeStyle;rounded=0;orthogonalLoop=1;jettySize=auto;html=1;startSize=10;endSize=10;exitX=0.5;exitY=1;exitDx=0;exitDy=0;entryX=0.5;entryY=0;entryDx=0;entryDy=0;fontColor=#012656;fontFamily=TitilliumText25L;fontSize=10;strokeColor=#012656;" edge="1" parent="1c1d494c118603dd-2" source="G4yqJb6Tjz21nFHgBb8d-3" target="1c1d494c118603dd-10">
          <mxGeometry relative="1" as="geometry">
            <mxPoint x="124.75" y="165" as="sourcePoint" />
            <mxPoint x="124.75" y="230" as="targetPoint" />
          </mxGeometry>
        </mxCell>
        <mxCell id="G4yqJb6Tjz21nFHgBb8d-6" value="" style="edgeStyle=orthogonalEdgeStyle;rounded=0;orthogonalLoop=1;jettySize=auto;html=1;startSize=10;endSize=10;exitX=0.5;exitY=1;exitDx=0;exitDy=0;entryX=0.5;entryY=0;entryDx=0;entryDy=0;fontColor=#012656;fontFamily=TitilliumText25L;fontSize=10;strokeColor=#012656;" edge="1" parent="1c1d494c118603dd-2" source="1c1d494c118603dd-10" target="G4yqJb6Tjz21nFHgBb8d-7">
          <mxGeometry relative="1" as="geometry">
            <mxPoint x="124.75" y="215" as="sourcePoint" />
            <mxPoint x="125" y="261" as="targetPoint" />
          </mxGeometry>
        </mxCell>
        <mxCell id="G4yqJb6Tjz21nFHgBb8d-7" value="CR complete?" style="rhombus;whiteSpace=wrap;html=1;fillColor=none;fontFamily=TitilliumText25L;fontColor=#012656;fontSize=10;strokeColor=#012656;" vertex="1" parent="1c1d494c118603dd-2">
          <mxGeometry x="82.5" y="260" width="85" height="60" as="geometry" />
        </mxCell>
        <mxCell id="1c1d494c118603dd-6" value="change required" style="rounded=1;whiteSpace=wrap;html=1;shadow=0;comic=0;labelBackgroundColor=none;strokeWidth=1;fontFamily=TitilliumText25L;fontSize=10;align=center;arcSize=50;fontColor=#012656;strokeColor=#012656;" parent="1c1d494c118603dd-2" vertex="1">
          <mxGeometry x="67.5" y="40" width="115" height="30" as="geometry" />
        </mxCell>
        <mxCell id="G4yqJb6Tjz21nFHgBb8d-4" value="" style="edgeStyle=orthogonalEdgeStyle;rounded=0;orthogonalLoop=1;jettySize=auto;html=1;startSize=10;endSize=10;fontColor=#012656;fontFamily=TitilliumText25L;fontSize=10;strokeColor=#012656;" edge="1" parent="1c1d494c118603dd-2" source="1c1d494c118603dd-6" target="G4yqJb6Tjz21nFHgBb8d-3">
          <mxGeometry relative="1" as="geometry" />
        </mxCell>
        <mxCell id="G4yqJb6Tjz21nFHgBb8d-3" value="identify change for items" style="whiteSpace=wrap;html=1;rounded=1;shadow=0;fontFamily=TitilliumText25L;strokeWidth=1;arcSize=50;comic=0;fontColor=#012656;fontSize=10;strokeColor=#012656;" vertex="1" parent="1c1d494c118603dd-2">
          <mxGeometry x="67.5" y="110" width="115" height="30" as="geometry" />
        </mxCell>
        <mxCell id="1c1d494c118603dd-10" value="change request" style="rounded=0;whiteSpace=wrap;html=1;shadow=0;comic=0;labelBackgroundColor=none;strokeWidth=1;fontFamily=TitilliumText25L;fontSize=10;align=center;arcSize=50;fontColor=#012656;strokeColor=#012656;" parent="1c1d494c118603dd-2" vertex="1">
          <mxGeometry x="90" y="185" width="70" height="30" as="geometry" />
        </mxCell>
        <mxCell id="G4yqJb6Tjz21nFHgBb8d-8" value="" style="edgeStyle=orthogonalEdgeStyle;rounded=0;orthogonalLoop=1;jettySize=auto;html=1;startSize=10;endSize=10;exitX=0;exitY=0.5;exitDx=0;exitDy=0;entryX=0;entryY=0.5;entryDx=0;entryDy=0;fontColor=#012656;fontFamily=TitilliumText25L;fontSize=10;strokeColor=#012656;" edge="1" parent="1c1d494c118603dd-2" source="G4yqJb6Tjz21nFHgBb8d-7" target="G4yqJb6Tjz21nFHgBb8d-3">
          <mxGeometry relative="1" as="geometry">
            <mxPoint x="135" y="225" as="sourcePoint" />
            <mxPoint x="135" y="270" as="targetPoint" />
            <Array as="points">
              <mxPoint x="40" y="290" />
              <mxPoint x="40" y="125" />
            </Array>
          </mxGeometry>
        </mxCell>
        <mxCell id="G4yqJb6Tjz21nFHgBb8d-9" value="incomplete" style="edgeLabel;html=1;align=center;verticalAlign=middle;resizable=0;points=[];fontFamily=TitilliumText25L;fontColor=#012656;fontSize=10;" vertex="1" connectable="0" parent="G4yqJb6Tjz21nFHgBb8d-8">
          <mxGeometry x="-0.186" y="1" relative="1" as="geometry">
            <mxPoint x="28.49" as="offset" />
          </mxGeometry>
        </mxCell>
        <mxCell id="G4yqJb6Tjz21nFHgBb8d-42" value="Baseline" style="rounded=0;whiteSpace=wrap;html=1;shadow=0;comic=0;labelBackgroundColor=none;strokeWidth=1;fontFamily=TitilliumText25L;fontSize=10;align=center;arcSize=50;fontColor=#012656;strokeColor=#012656;" vertex="1" parent="1c1d494c118603dd-2">
          <mxGeometry x="90" y="390" width="70" height="30" as="geometry" />
        </mxCell>
        <mxCell id="G4yqJb6Tjz21nFHgBb8d-18" value="" style="edgeStyle=orthogonalEdgeStyle;rounded=0;orthogonalLoop=1;jettySize=auto;html=1;startSize=10;endSize=10;exitX=1;exitY=0.5;exitDx=0;exitDy=0;entryX=0;entryY=0.5;entryDx=0;entryDy=0;fontColor=#012656;fontFamily=TitilliumText25L;fontSize=10;strokeColor=#012656;" edge="1" parent="1c1d494c118603dd-1" source="G4yqJb6Tjz21nFHgBb8d-7" target="G4yqJb6Tjz21nFHgBb8d-14">
          <mxGeometry relative="1" as="geometry">
            <mxPoint x="385" y="245" as="sourcePoint" />
            <mxPoint x="385" y="290" as="targetPoint" />
            <Array as="points">
              <mxPoint x="280" y="310" />
              <mxPoint x="280" y="75" />
            </Array>
          </mxGeometry>
        </mxCell>
        <mxCell id="G4yqJb6Tjz21nFHgBb8d-19" value="complete" style="edgeLabel;html=1;align=center;verticalAlign=middle;resizable=0;points=[];fontFamily=TitilliumText25L;fontColor=#012656;fontSize=10;" vertex="1" connectable="0" parent="G4yqJb6Tjz21nFHgBb8d-18">
          <mxGeometry x="-0.186" y="1" relative="1" as="geometry">
            <mxPoint x="-69" y="34.09" as="offset" />
          </mxGeometry>
        </mxCell>
        <mxCell id="G4yqJb6Tjz21nFHgBb8d-33" value="" style="edgeStyle=orthogonalEdgeStyle;rounded=0;orthogonalLoop=1;jettySize=auto;html=1;startSize=10;endSize=10;fontFamily=TitilliumText25L;fontSize=10;fontColor=#012656;exitX=0;exitY=0.5;exitDx=0;exitDy=0;entryX=0.5;entryY=1;entryDx=0;entryDy=0;strokeColor=#012656;" edge="1" parent="1c1d494c118603dd-1" source="G4yqJb6Tjz21nFHgBb8d-32" target="G4yqJb6Tjz21nFHgBb8d-7">
          <mxGeometry relative="1" as="geometry">
            <mxPoint x="375" y="220" as="sourcePoint" />
            <mxPoint x="380" y="380" as="targetPoint" />
            <Array as="points">
              <mxPoint x="300" y="170" />
              <mxPoint x="300" y="360" />
              <mxPoint x="125" y="360" />
            </Array>
          </mxGeometry>
        </mxCell>
        <mxCell id="G4yqJb6Tjz21nFHgBb8d-35" value="reject" style="edgeLabel;html=1;align=center;verticalAlign=middle;resizable=0;points=[];fontSize=10;fontFamily=TitilliumText25L;fontColor=#012656;" vertex="1" connectable="0" parent="G4yqJb6Tjz21nFHgBb8d-33">
          <mxGeometry x="-0.8866" relative="1" as="geometry">
            <mxPoint y="-10.01" as="offset" />
          </mxGeometry>
        </mxCell>
        <mxCell id="G4yqJb6Tjz21nFHgBb8d-10" value="Change Manager" style="swimlane;html=1;startSize=20;fontColor=#012656;fontFamily=TitilliumText25L;fontSize=10;strokeColor=#012656;" vertex="1" parent="1c1d494c118603dd-1">
          <mxGeometry x="250" y="20" width="250" height="440" as="geometry" />
        </mxCell>
        <mxCell id="G4yqJb6Tjz21nFHgBb8d-11" value="" style="edgeStyle=orthogonalEdgeStyle;rounded=0;orthogonalLoop=1;jettySize=auto;html=1;startSize=10;endSize=10;exitX=0.5;exitY=1;exitDx=0;exitDy=0;entryX=0.5;entryY=0;entryDx=0;entryDy=0;fontColor=#012656;fontFamily=TitilliumText25L;fontSize=12;" edge="1" parent="G4yqJb6Tjz21nFHgBb8d-10" target="G4yqJb6Tjz21nFHgBb8d-17">
          <mxGeometry relative="1" as="geometry">
            <mxPoint x="125" y="140" as="sourcePoint" />
            <mxPoint x="124.75" y="230" as="targetPoint" />
          </mxGeometry>
        </mxCell>
        <mxCell id="G4yqJb6Tjz21nFHgBb8d-41" value="reject" style="edgeStyle=orthogonalEdgeStyle;rounded=0;orthogonalLoop=1;jettySize=auto;html=1;entryX=0.5;entryY=1;entryDx=0;entryDy=0;startSize=10;endSize=10;fontFamily=TitilliumText25L;fontSize=10;fontColor=#012656;strokeColor=#012656;" edge="1" parent="G4yqJb6Tjz21nFHgBb8d-10" source="G4yqJb6Tjz21nFHgBb8d-23" target="G4yqJb6Tjz21nFHgBb8d-38">
          <mxGeometry x="-0.5" y="-15" relative="1" as="geometry">
            <mxPoint as="offset" />
          </mxGeometry>
        </mxCell>
        <mxCell id="G4yqJb6Tjz21nFHgBb8d-14" value="initial &amp;nbsp;clarification" style="rounded=1;whiteSpace=wrap;html=1;shadow=0;comic=0;labelBackgroundColor=none;strokeWidth=1;fontFamily=TitilliumText25L;fontSize=10;align=center;arcSize=50;fontColor=#012656;strokeColor=#012656;" vertex="1" parent="G4yqJb6Tjz21nFHgBb8d-10">
          <mxGeometry x="67.5" y="40" width="115" height="30" as="geometry" />
        </mxCell>
        <mxCell id="G4yqJb6Tjz21nFHgBb8d-32" value="change accepted?" style="rhombus;whiteSpace=wrap;html=1;fillColor=none;fontFamily=TitilliumText25L;fontSize=10;fontColor=#012656;strokeColor=#012656;" vertex="1" parent="G4yqJb6Tjz21nFHgBb8d-10">
          <mxGeometry x="85" y="110" width="80" height="80" as="geometry" />
        </mxCell>
        <mxCell id="G4yqJb6Tjz21nFHgBb8d-31" value="" style="edgeStyle=orthogonalEdgeStyle;rounded=0;orthogonalLoop=1;jettySize=auto;html=1;startSize=10;endSize=10;fontFamily=TitilliumText25L;fontSize=10;fontColor=#012656;entryX=0.5;entryY=0;entryDx=0;entryDy=0;strokeColor=#012656;" edge="1" parent="G4yqJb6Tjz21nFHgBb8d-10" source="G4yqJb6Tjz21nFHgBb8d-14" target="G4yqJb6Tjz21nFHgBb8d-32">
          <mxGeometry relative="1" as="geometry">
            <mxPoint x="125.0434782608695" y="106.0434782608695" as="targetPoint" />
          </mxGeometry>
        </mxCell>
        <mxCell id="G4yqJb6Tjz21nFHgBb8d-38" value="assign to development" style="rounded=1;whiteSpace=wrap;html=1;shadow=0;comic=0;labelBackgroundColor=none;strokeWidth=1;fontFamily=TitilliumText25L;fontSize=10;align=center;arcSize=50;fontColor=#012656;strokeColor=#012656;" vertex="1" parent="G4yqJb6Tjz21nFHgBb8d-10">
          <mxGeometry x="67.5" y="230" width="115" height="30" as="geometry" />
        </mxCell>
        <mxCell id="G4yqJb6Tjz21nFHgBb8d-37" value="" style="edgeStyle=orthogonalEdgeStyle;rounded=0;orthogonalLoop=1;jettySize=auto;html=1;startSize=10;endSize=10;fontFamily=TitilliumText25L;fontSize=10;fontColor=#012656;entryX=0.5;entryY=0;entryDx=0;entryDy=0;strokeColor=#012656;" edge="1" parent="G4yqJb6Tjz21nFHgBb8d-10" source="G4yqJb6Tjz21nFHgBb8d-32" target="G4yqJb6Tjz21nFHgBb8d-38">
          <mxGeometry relative="1" as="geometry">
            <mxPoint x="124" y="230" as="targetPoint" />
          </mxGeometry>
        </mxCell>
        <mxCell id="G4yqJb6Tjz21nFHgBb8d-23" value="audit revision" style="rhombus;whiteSpace=wrap;html=1;strokeColor=#012656;fillColor=none;fontFamily=TitilliumText25L;fontColor=#012656;fontSize=10;" vertex="1" parent="G4yqJb6Tjz21nFHgBb8d-10">
          <mxGeometry x="82.5" y="300" width="85" height="60" as="geometry" />
        </mxCell>
        <mxCell id="G4yqJb6Tjz21nFHgBb8d-20" value="Development Team" style="swimlane;html=1;startSize=20;fontColor=#012656;fontFamily=TitilliumText25L;fontSize=10;strokeColor=#012656;" vertex="1" parent="1c1d494c118603dd-1">
          <mxGeometry x="500" y="20" width="250" height="440" as="geometry" />
        </mxCell>
        <mxCell id="G4yqJb6Tjz21nFHgBb8d-21" value="" style="edgeStyle=orthogonalEdgeStyle;rounded=0;orthogonalLoop=1;jettySize=auto;html=1;startSize=10;endSize=10;exitX=0.5;exitY=1;exitDx=0;exitDy=0;entryX=0.5;entryY=0;entryDx=0;entryDy=0;fontColor=#012656;fontFamily=TitilliumText25L;fontSize=10;strokeColor=#012656;" edge="1" parent="G4yqJb6Tjz21nFHgBb8d-20" source="G4yqJb6Tjz21nFHgBb8d-26" target="G4yqJb6Tjz21nFHgBb8d-27">
          <mxGeometry relative="1" as="geometry">
            <mxPoint x="124.75" y="165" as="sourcePoint" />
            <mxPoint x="124.75" y="230" as="targetPoint" />
          </mxGeometry>
        </mxCell>
        <mxCell id="G4yqJb6Tjz21nFHgBb8d-24" value="implement changes" style="rounded=1;whiteSpace=wrap;html=1;shadow=0;comic=0;labelBackgroundColor=none;strokeWidth=1;fontFamily=TitilliumText25L;fontSize=10;align=center;arcSize=50;fontColor=#012656;strokeColor=#012656;" vertex="1" parent="G4yqJb6Tjz21nFHgBb8d-20">
          <mxGeometry x="67.5" y="40" width="115" height="30" as="geometry" />
        </mxCell>
        <mxCell id="G4yqJb6Tjz21nFHgBb8d-25" value="" style="edgeStyle=orthogonalEdgeStyle;rounded=0;orthogonalLoop=1;jettySize=auto;html=1;startSize=10;endSize=10;fontColor=#012656;fontFamily=TitilliumText25L;fontSize=10;strokeColor=#012656;" edge="1" parent="G4yqJb6Tjz21nFHgBb8d-20" source="G4yqJb6Tjz21nFHgBb8d-24" target="G4yqJb6Tjz21nFHgBb8d-26">
          <mxGeometry relative="1" as="geometry" />
        </mxCell>
        <mxCell id="G4yqJb6Tjz21nFHgBb8d-26" value="build and deploy" style="whiteSpace=wrap;html=1;rounded=1;shadow=0;fontFamily=TitilliumText25L;strokeWidth=1;arcSize=50;comic=0;fontColor=#012656;fontSize=10;strokeColor=#012656;" vertex="1" parent="G4yqJb6Tjz21nFHgBb8d-20">
          <mxGeometry x="67.5" y="110" width="115" height="30" as="geometry" />
        </mxCell>
        <mxCell id="G4yqJb6Tjz21nFHgBb8d-27" value="Revision" style="rounded=0;whiteSpace=wrap;html=1;shadow=0;comic=0;labelBackgroundColor=none;strokeWidth=1;fontFamily=TitilliumText25L;fontSize=10;align=center;arcSize=50;fontColor=#012656;strokeColor=#012656;" vertex="1" parent="G4yqJb6Tjz21nFHgBb8d-20">
          <mxGeometry x="90" y="185" width="70" height="30" as="geometry" />
        </mxCell>
        <mxCell id="G4yqJb6Tjz21nFHgBb8d-40" style="edgeStyle=orthogonalEdgeStyle;rounded=0;orthogonalLoop=1;jettySize=auto;html=1;entryX=0;entryY=0.5;entryDx=0;entryDy=0;startSize=10;endSize=10;fontFamily=TitilliumText25L;fontSize=10;fontColor=#012656;strokeColor=#012656;" edge="1" parent="1c1d494c118603dd-1" source="G4yqJb6Tjz21nFHgBb8d-38" target="G4yqJb6Tjz21nFHgBb8d-24">
          <mxGeometry relative="1" as="geometry">
            <Array as="points">
              <mxPoint x="530" y="265" />
              <mxPoint x="530" y="75" />
            </Array>
          </mxGeometry>
        </mxCell>
        <mxCell id="G4yqJb6Tjz21nFHgBb8d-22" value="" style="edgeStyle=orthogonalEdgeStyle;rounded=0;orthogonalLoop=1;jettySize=auto;html=1;startSize=10;endSize=10;exitX=0.5;exitY=1;exitDx=0;exitDy=0;entryX=1;entryY=0.5;entryDx=0;entryDy=0;fontColor=#012656;fontFamily=TitilliumText25L;fontSize=10;strokeColor=#012656;" edge="1" parent="1c1d494c118603dd-1" source="G4yqJb6Tjz21nFHgBb8d-27" target="G4yqJb6Tjz21nFHgBb8d-23">
          <mxGeometry relative="1" as="geometry">
            <mxPoint x="624.75" y="235" as="sourcePoint" />
            <mxPoint x="625" y="281" as="targetPoint" />
          </mxGeometry>
        </mxCell>
        <mxCell id="G4yqJb6Tjz21nFHgBb8d-43" style="edgeStyle=orthogonalEdgeStyle;rounded=0;orthogonalLoop=1;jettySize=auto;html=1;entryX=1;entryY=0.5;entryDx=0;entryDy=0;startSize=10;endSize=10;fontFamily=TitilliumText25L;fontSize=10;fontColor=#012656;exitX=0.5;exitY=1;exitDx=0;exitDy=0;strokeColor=#012656;" edge="1" parent="1c1d494c118603dd-1" source="G4yqJb6Tjz21nFHgBb8d-23" target="G4yqJb6Tjz21nFHgBb8d-42">
          <mxGeometry relative="1" as="geometry" />
        </mxCell>
        <mxCell id="G4yqJb6Tjz21nFHgBb8d-44" value="accept" style="edgeLabel;html=1;align=center;verticalAlign=middle;resizable=0;points=[];fontSize=10;fontFamily=TitilliumText25L;fontColor=#012656;" vertex="1" connectable="0" parent="G4yqJb6Tjz21nFHgBb8d-43">
          <mxGeometry x="-0.12" y="-3" relative="1" as="geometry">
            <mxPoint y="8" as="offset" />
          </mxGeometry>
        </mxCell>
      </root>
    </mxGraphModel>
  </diagram>
</mxfile>
